<svg xmlns="http://www.w3.org/2000/svg" aria-hidden="true" style="position:absolute;width:0;height:0;overflow:hidden">
  <defs>
    <symbol id="icon-logotup" viewBox="0 0 126 32">
      <path d="m10.285 8.877 10.058-2.963L17.408 16l2.935 10.058-10.058-2.935L.199 26.058 3.162 16 .199 5.914l10.086 2.963zM27.954 23.429v-16h6.354c.975 0 1.844.198 2.606.594.777.381 1.379.93 1.806 1.646.442.701.663 1.547.663 2.537v.297c0 .99-.229 1.844-.686 2.56-.442.716-1.044 1.265-1.806 1.646s-1.623.571-2.583.571h-3.886v6.149h-2.469zm2.469-8.389h3.634c.869 0 1.562-.229 2.08-.686s.777-1.082.777-1.874v-.229c0-.808-.259-1.44-.777-1.897s-1.211-.686-2.08-.686h-3.634v5.371zM46.763 23.749c-1.128 0-2.133-.229-3.017-.686-.869-.472-1.554-1.143-2.057-2.011s-.754-1.897-.754-3.086v-.343c0-1.189.251-2.21.754-3.063a5.218 5.218 0 0 1 2.057-2.011c.884-.472 1.89-.709 3.017-.709s2.133.236 3.017.709a5.18 5.18 0 0 1 2.08 2.011c.503.853.754 1.874.754 3.063v.343c0 1.189-.251 2.217-.754 3.086s-1.196 1.539-2.08 2.011c-.884.457-1.89.686-3.017.686zm0-2.103c1.036 0 1.874-.328 2.514-.983.655-.67.983-1.592.983-2.766v-.206c0-1.173-.32-2.088-.96-2.743-.64-.67-1.486-1.006-2.537-1.006-1.021 0-1.859.335-2.514 1.006-.64.655-.96 1.57-.96 2.743v.206c0 1.173.32 2.095.96 2.766.655.655 1.493.983 2.514.983zM60.162 23.749c-1.433 0-2.621-.32-3.566-.96s-1.524-1.608-1.737-2.903l2.194-.526c.122.625.327 1.12.617 1.486s.647.625 1.074.777c.442.152.914.229 1.417.229.747 0 1.318-.145 1.714-.434.411-.29.617-.663.617-1.12s-.19-.792-.571-1.006c-.381-.213-.945-.389-1.691-.526l-.777-.137c-.762-.137-1.455-.335-2.08-.594s-1.12-.617-1.486-1.074-.549-1.044-.549-1.76c0-1.067.396-1.89 1.189-2.469.793-.594 1.844-.891 3.154-.891 1.265 0 2.301.29 3.109.869a3.835 3.835 0 0 1 1.6 2.309l-2.194.617c-.137-.686-.427-1.166-.869-1.44-.442-.29-.99-.434-1.646-.434-.64 0-1.143.122-1.509.366-.366.229-.549.556-.549.983 0 .457.175.792.526 1.006.366.213.853.373 1.463.48l.8.137c.807.137 1.547.328 2.217.571s1.196.594 1.577 1.051c.396.457.594 1.067.594 1.829 0 1.128-.419 2.004-1.257 2.629s-1.966.937-3.383.937zM67.554 23.429V12.16h2.354v11.269h-2.354zm1.189-12.8c-.457 0-.846-.145-1.166-.434-.305-.305-.457-.693-.457-1.166s.152-.853.457-1.143c.32-.305.709-.457 1.166-.457.472 0 .861.152 1.166.457.305.29.457.67.457 1.143s-.153.861-.457 1.166c-.305.29-.694.434-1.166.434zM77.631 23.429c-.686 0-1.234-.206-1.646-.617-.396-.411-.594-.96-.594-1.646v-7.017h-3.109V12.16h3.109V8.434h2.354v3.726h3.36v1.989h-3.36v6.606c0 .457.213.686.64.686h2.354v1.989H77.63zM83.871 23.429V12.16h2.354v11.269h-2.354zm1.188-12.8c-.457 0-.846-.145-1.166-.434-.305-.305-.457-.693-.457-1.166s.153-.853.457-1.143c.32-.305.709-.457 1.166-.457.473 0 .861.152 1.166.457.305.29.457.67.457 1.143s-.152.861-.457 1.166c-.305.29-.693.434-1.166.434zM92.325 23.429 88.531 12.16h2.491l2.994 9.531h.366l2.994-9.531h2.491l-3.794 11.269h-3.749zM106.472 23.634c-.853 0-1.615-.19-2.286-.571s-1.196-.922-1.577-1.623-.571-1.539-.571-2.514V12.16h2.354v6.606c0 .975.244 1.699.731 2.171.488.457 1.166.686 2.034.686.96 0 1.73-.32 2.309-.96.594-.655.891-1.592.891-2.811v-5.691h2.354V23.43h-2.309v-1.691h-.366c-.213.457-.594.891-1.143 1.303-.549.396-1.356.594-2.423.594zM120.81 23.749c-1.433 0-2.621-.32-3.566-.96s-1.524-1.608-1.737-2.903l2.194-.526c.122.625.327 1.12.617 1.486s.647.625 1.074.777c.442.152.914.229 1.417.229.746 0 1.318-.145 1.714-.434.411-.29.617-.663.617-1.12s-.191-.792-.571-1.006c-.381-.213-.945-.389-1.691-.526l-.777-.137c-.762-.137-1.455-.335-2.08-.594s-1.12-.617-1.486-1.074-.549-1.044-.549-1.76c0-1.067.396-1.89 1.189-2.469.792-.594 1.843-.891 3.154-.891 1.265 0 2.301.29 3.109.869a3.835 3.835 0 0 1 1.6 2.309l-2.194.617c-.137-.686-.427-1.166-.869-1.44-.442-.29-.991-.434-1.646-.434-.64 0-1.143.122-1.509.366-.366.229-.549.556-.549.983 0 .457.175.792.526 1.006.366.213.853.373 1.463.48l.8.137c.807.137 1.546.328 2.217.571s1.196.594 1.577 1.051c.396.457.594 1.067.594 1.829 0 1.128-.419 2.004-1.257 2.629s-1.966.937-3.383.937z"/>
    </symbol>
    <symbol id="icon-zoom-logo" viewBox="0 0 74 32">
      <path d="M60.24 13.731c-.291-.445-.708-.815-1.211-1.072s-1.073-.392-1.653-.393c-.58 0-1.15.135-1.652.392s-.921.625-1.212 1.07c-.282.434-.369.92-.404 1.474l-.041.734v5.131l-.044.735c-.054 1.218-1.055 2.081-2.44 2.162l-.828.036V9.334c.828 0 2.27.37 2.915 1.008a7.16 7.16 0 0 1 3.706-1.008c.939 0 1.868.177 2.724.52s1.62.843 2.241 1.468c.62-.625 1.384-1.126 2.24-1.469s1.785-.52 2.725-.519c1.755.001 3.439.619 4.679 1.719s1.938 2.592 1.938 4.148v8.798l-.825-.036c-1.368-.069-2.359-.956-2.443-2.162l-.041-.735v-5.133l-.041-.732c-.034-.538-.121-1.037-.403-1.468-.289-.446-.706-.816-1.207-1.074s-1.072-.394-1.652-.395-1.15.133-1.653.39a3.142 3.142 0 0 0-1.212 1.07c-.286.433-.377.932-.411 1.477l-.041.734v8.064l-.824-.036c-1.364-.075-2.362-.962-2.444-2.162l-.041-.735v-5.131l-.04-.734c-.03-.551-.122-1.04-.404-1.471zM3.593 23.965l.828.035h12.41l-.041-.731c-.112-1.206-1.076-2.087-2.44-2.165l-.828-.036H6.077l9.927-8.801-.041-.731c-.064-1.218-1.069-2.098-2.44-2.165l-.828-.033-12.41-.003.041.734c.109 1.194 1.086 2.094 2.439 2.163l.829.036h7.445l-9.927 8.801.041.734c.082 1.209 1.066 2.084 2.44 2.162v.001zm43.913-12.484c.768.681 1.378 1.489 1.794 2.379s.63 1.843.63 2.806c0 .963-.214 1.917-.63 2.806s-1.025 1.698-1.794 2.379c-1.553 1.375-3.657 2.147-5.852 2.147s-4.3-.772-5.852-2.147c-3.231-2.864-3.231-7.507 0-10.371.768-.681 1.679-1.221 2.682-1.589s2.078-.558 3.164-.558c1.088-.001 2.165.189 3.17.557s1.918.909 2.687 1.591v-.001zm-2.341 2.076c.931.825 1.453 1.945 1.453 3.112s-.523 2.286-1.453 3.111c-.931.825-2.194 1.288-3.511 1.288s-2.579-.463-3.511-1.288c-.931-.825-1.453-1.945-1.453-3.111s.523-2.286 1.453-3.112c.931-.825 2.194-1.288 3.511-1.288s2.579.463 3.511 1.288zM24.284 9.333c1.086 0 2.161.19 3.165.559s1.915.909 2.682 1.59c3.232 2.863 3.232 7.507 0 10.37-1.552 1.375-3.657 2.147-5.852 2.147s-4.3-.772-5.852-2.147c-3.231-2.864-3.231-7.507 0-10.371.768-.681 1.679-1.221 2.682-1.589s2.078-.558 3.164-.558h.01zm3.505 4.223c.931.825 1.454 1.945 1.454 3.112s-.523 2.286-1.454 3.112c-.931.825-2.194 1.288-3.511 1.288s-2.579-.463-3.511-1.288c-.931-.825-1.453-1.945-1.453-3.112s.523-2.286 1.453-3.112c.931-.825 2.194-1.288 3.511-1.288s2.579.463 3.511 1.288v-.001z"/>
    </symbol>
    <symbol id="icon-netflix-logo" viewBox="0 0 84 32">
      <path d="M11.667 25.378c-1.256.195-2.534.254-3.856.41L3.778 15.319v10.918c-1.256.117-2.402.273-3.592.43v-20h3.35L8.12 18.015V6.667h3.548v18.711zm6.942-11.387c1.366 0 3.46-.059 4.716-.059v3.125c-1.565 0-3.394 0-4.716.059v4.649c2.072-.117 4.143-.274 6.236-.332v3.008l-9.762.684V6.668h9.762v3.125h-6.236v4.199zm19.349-4.199H34.3v14.375c-1.19 0-2.38 0-3.526.039V9.792h-3.658V6.667h10.842v3.125zm5.729 3.984h4.826v3.125h-4.826v7.09h-3.46V6.667h9.851v3.125h-6.391v3.984zm12.121 7.481c2.005.039 4.033.176 5.994.273v3.086c-3.151-.176-6.303-.351-9.52-.41V6.667h3.526v14.59zm8.969 3.574c1.124.059 2.314.117 3.46.234V6.667h-3.46v18.164zM83.685 6.667l-4.473 9.512 4.473 10.488c-1.322-.156-2.645-.371-3.967-.566l-2.534-5.781-2.579 5.313c-1.278-.195-2.512-.254-3.79-.41l4.539-9.16-4.099-9.394h3.79l2.314 5.254 2.468-5.254h3.857z"/>
    </symbol>
    <symbol id="icon-notion-logo" viewBox="0 0 98 32">
      <path d="M34.35 23.183V13.48h.195l7.969 9.703h2.508V8.933h-2.786v9.679h-.195l-7.969-9.679h-2.508v14.25h2.786zm18.558.22c3.678 0 5.935-2.102 5.935-5.622 0-3.495-2.257-5.622-5.935-5.622-3.65 0-5.935 2.126-5.935 5.622.028 3.52 2.257 5.622 5.935 5.622zm0-2.053c-1.951 0-3.065-1.295-3.065-3.568 0-2.249 1.115-3.568 3.065-3.568s3.065 1.32 3.065 3.568c0 2.273-1.115 3.568-3.065 3.568zm8.471-11.61v2.713h-1.951v1.955h1.951v5.89c0 2.102 1.115 2.933 3.957 2.933a8.93 8.93 0 0 0 1.477-.122v-1.906c-.335.024-.558.049-.948.049-1.17 0-1.7-.464-1.7-1.54v-5.304h2.647v-1.955h-2.647V9.74h-2.786zm7.105 13.443h2.787V12.38h-2.787v10.803zm1.393-12.587c.92 0 1.672-.66 1.672-1.467 0-.831-.752-1.491-1.672-1.491s-1.672.66-1.672 1.491c0 .807.753 1.467 1.672 1.467zm9.028 12.807c3.679 0 5.935-2.102 5.935-5.622 0-3.495-2.257-5.622-5.935-5.622-3.65 0-5.935 2.126-5.935 5.622 0 3.52 2.229 5.622 5.935 5.622zm0-2.053c-1.95 0-3.065-1.295-3.065-3.568 0-2.249 1.115-3.568 3.065-3.568 1.923 0 3.065 1.32 3.065 3.568-.028 2.273-1.143 3.568-3.065 3.568zm7.58 1.833h2.787v-6.282c0-1.589 1.059-2.591 2.703-2.591 1.7 0 2.48.831 2.48 2.469v6.404h2.787v-6.99c0-2.591-1.505-4.033-4.235-4.033-1.839 0-3.065.733-3.651 1.955h-.195V12.38h-2.703c.028 0 .028 10.803.028 10.803zM4.846 8.022c.811.58 1.104.534 2.623.443l14.305-.763c.311 0 .052-.275-.052-.305l-2.381-1.511c-.449-.305-1.07-.671-2.226-.58l-13.839.9c-.5.046-.604.275-.397.443l1.967 1.373zm.863 2.945v13.306c0 .717.397.977 1.311.931l15.72-.809c.915-.046 1.018-.534 1.018-1.114V10.066c0-.58-.259-.9-.811-.855l-16.427.855c-.604.046-.811.32-.811.9zm15.512.717c.104.397 0 .809-.449.855l-.759.137v9.827c-.656.305-1.26.488-1.777.488-.811 0-1.018-.229-1.622-.9l-4.952-6.882v6.653l1.57.305s0 .809-1.26.809l-3.486.183c-.104-.183 0-.626.345-.717l.915-.229v-8.79l-1.26-.092c-.104-.397.155-.977.863-1.022l3.744-.229 5.159 6.958v-6.15l-1.311-.137c-.104-.488.311-.855.811-.9l3.468-.168zM2.12 4.985l14.408-.931c1.76-.137 2.226-.046 3.33.671l4.59 2.854c.759.488 1.018.626 1.018 1.16v15.672c0 .977-.397 1.556-1.812 1.648l-16.72.9c-1.07.046-1.57-.092-2.122-.717l-3.399-3.891C.809 21.634.55 21.1.55 20.474V6.542c0-.809.414-1.465 1.57-1.556z"/>
    </symbol>
    <symbol id="icon-hbspot-logo" viewBox="0 0 86 32">
      <path d="M9.454 8.738v6.059H3.176V8.738H.195V23.2h2.981v-5.862h6.278V23.2h2.981V8.738H9.454zM21.973 18.525c0 .58-.26 1.135-.722 1.545s-1.09.64-1.744.64c-.654 0-1.281-.23-1.744-.64s-.722-.966-.722-1.545v-6.194h-2.827v6.194c0 1.243.557 2.435 1.549 3.314s2.337 1.373 3.739 1.373 2.747-.494 3.739-1.373 1.549-2.071 1.549-3.314v-6.194h-2.817v6.194zM42.921 12.969c0-1.27.948-1.672 1.986-1.672.837 0 1.942.564 2.665 1.249l1.852-1.934c-.924-1.108-2.799-1.874-4.334-1.874-3.067 0-5.285 1.592-5.285 4.231 0 4.896 6.753 3.343 6.753 6.083 0 .845-.926 1.592-1.986 1.592-1.672 0-2.214-.725-2.982-1.491l-2.055 1.894c1.314 1.43 2.935 2.156 4.878 2.156 2.913 0 5.257-1.611 5.257-4.13 0-5.436-6.753-3.747-6.753-6.104zM84.695 20.889c-1.671 0-2.145-.641-2.145-1.622v-4.342h2.597v-2.2H82.55V9.822l-2.866 1.14v8.845c0 2.262 1.761 3.403 4.176 3.403.379.006.757-.021 1.131-.08l.699-2.282c-.315.019-.677.039-.995.039zM32.735 12.403c-1.4 0-2.377.36-3.322 1.182v-4.76h-2.832v8.823c0 3.303 2.694 5.565 5.722 5.565 3.359 0 6.313-2.302 6.313-5.404 0-3.062-2.719-5.405-5.881-5.405v-.001zm-.018 8.285c-.635 0-1.257-.167-1.785-.48s-.94-.758-1.183-1.278c-.243-.52-.307-1.093-.183-1.645s.43-1.06.879-1.458c.449-.398 1.022-.669 1.645-.779s1.269-.053 1.856.162c.587.215 1.089.58 1.442 1.049s.541 1.019.541 1.582c0 .755-.338 1.479-.941 2.013s-1.42.834-2.272.834zM63.481 17.677c0-3.106-2.948-5.404-6.313-5.404-3.027 0-5.722 2.262-5.722 5.565v8.828h2.832v-4.767c.943.821 1.922 1.182 3.321 1.182 3.162 0 5.881-2.341 5.881-5.405h.001zm-2.682-.031c0 .563-.188 1.114-.541 1.582s-.855.833-1.442 1.049c-.587.215-1.233.272-1.856.162s-1.196-.381-1.645-.779c-.449-.398-.755-.906-.879-1.458s-.06-1.125.183-1.645.655-.965 1.183-1.278 1.149-.48 1.785-.48c.852 0 1.669.3 2.272.834s.941 1.258.941 2.013z"/>
      <path d="M72.6 12.233V9.738c.372-.154.687-.399.908-.705s.34-.663.342-1.027v-.058c-.002-.509-.231-.996-.636-1.356s-.956-.562-1.53-.564h-.065c-.574.001-1.124.204-1.53.564s-.634.847-.636 1.356v.058c.002.364.121.72.342 1.027s.536.551.908.705v2.495a6.562 6.562 0 0 0-2.921 1.139l-7.731-5.331c.055-.176.085-.357.088-.54.001-.428-.142-.847-.41-1.203s-.649-.634-1.095-.799c-.446-.164-.937-.208-1.411-.125s-.91.289-1.252.591c-.342.302-.575.688-.67 1.108s-.047.855.137 1.251c.184.396.497.734.899.973s.874.366 1.357.366a2.66 2.66 0 0 0 1.208-.291l7.601 5.244c-.685.915-1.042 1.993-1.025 3.091s.407 2.166 1.12 3.065l-2.313 2.05a2.262 2.262 0 0 0-.574-.083c-.397 0-.785.104-1.116.3s-.588.473-.74.799c-.152.325-.192.683-.114 1.028s.269.662.55.911.639.418 1.028.487.793.033 1.16-.101c.367-.135.681-.363.901-.655s.338-.637.338-.989a1.59 1.59 0 0 0-.093-.509l2.288-2.028c.747.506 1.615.853 2.537 1.017s1.873.138 2.782-.075c.909-.212 1.751-.606 2.462-1.151s1.272-1.227 1.641-1.993.535-1.597.485-2.429-.312-1.643-.769-2.371-1.095-1.354-1.866-1.83-1.655-.79-2.584-.917zm-.948 8.208c-.626 0-1.238-.165-1.759-.473s-.927-.747-1.166-1.259c-.24-.513-.303-1.077-.181-1.621s.424-1.044.867-1.437 1.007-.66 1.621-.768c.614-.108 1.251-.053 1.829.16s1.073.572 1.421 1.033.533 1.004.533 1.559c0 .744-.333 1.458-.927 1.984s-1.399.822-2.239.822z"/>
    </symbol>
    <symbol id="icon-dribbble-logo" viewBox="0 0 85 32">
      <path d="M83.727 20.376c-3.503 5.265-9.053 3.737-10.719 2.541-.709.427-1.953 1.361-3.611 1.253-3.532-.23-4.797-4.703-4.797-4.703.025.018-1.052.329-1.634.324-.007 1.312-1.287 4.445-4.74 4.405-3.875-.045-4.662-5.161-4.662-5.161s-.386.475-1.852.947c.074-1.008.02 4.06-4.624 4.135-3.671.059-4.662-5.161-4.662-5.161s-.637.586-1.871.79c.078-1.024-.049 4.388-4.694 4.371-3.139-.012-4.211-3.215-4.128-3.66.106-.567-1.061 3.74-4.11 3.673-1.258-.033-2.196-.84-2.785-1.916-.788.799-1.932 1.916-3.215 1.916-2.304 0-3.319-1.708-3.147-6.585.015-.578-.032-.806-.681-.892-.389-.058-.788-.167-1.21-.224-.135.4-1.282 7.571-5.227 7.707-1.323.046-2.047-.97-2.641-1.724-.911 1.068-2.113 1.758-3.826 1.758-2.902 0-4.879-2.079-4.879-4.644s1.977-4.644 4.879-4.644c.513 0 .657.065 1.126.186-.964-7.778 1.312-8.994 3.304-8.994 1.912 0 5.178 3.933.582 13.908 1.02 2.975 3.22 2.807 4.277-3.318.215-1.245-.36-2.925.535-3.16 1.636-.429 1.809.857 2.576 1.071.811.226 1.284.204 2.063.348 1.33.23 1.849.864 1.687 2.274-.195 1.785-.535 4.382.503 4.699.749.23 2.115-1.146 2.355-1.899s.29-1.01.311-1.563c.032-1.18.073-2.045.3-2.938.097-.345.208-.574.649-.59.363-.008 1.026-.105 1.318.096.389.259.341.522.296 1.214-.453 9.869 3.031 4.942 4.07.998-.37-4.461-.116-11.062 3.038-11.172 1.64-.058 2.365 1.107 2.445 1.976.226 2.455-1.038 6.522-2.7 9.257-.95 5.581 4.153 6.684 4.969 2.23-1.335-.563-2.778-2.84-1.604-3.95.659-.623 3.401.272 3.446 2.223 1.345-.319 1.525-.992 1.544-.881-.37-4.461-.027-10.746 3.127-10.856 1.64-.058 2.365 1.107 2.445 1.976.226 2.455-1.038 6.522-2.7 9.257-.95 5.581 4.153 6.684 4.969 2.23-.988-.169-3.075-2.591-1.871-3.95.643-.726 3.376.784 3.682 2.288 1.292-.324 1.468-.976 1.486-.866-.37-4.461-.027-10.745 3.127-10.856 1.64-.058 2.365 1.107 2.445 1.976.226 2.455-1.038 6.522-2.7 9.257-.95 5.581 4.153 6.684 4.969 2.229-1.358-.2-3.289-2.758-1.735-4.066.621-.523 2.993.834 3.548 2.382.771-.026 1.252-.262 1.355-.286-1.232-5.237-.315-11.52 3.078-11.572 1.834-.028 3.627.879 2.84 5.861-.751 4.753-3.451 6.748-3.445 6.779.157.569 1.543 5.335 5.032 2.821-.181-.362-.361-.733-.463-1.181-.578-2.613.558-5.565 3.645-6.042 1.769-.273 3.435.49 3.699 2.211.433 2.816-2.435 4.855-3.526 5.297-.489-.246 4.429 2.549 7.347-3.053.169-.32.373-.293.637-.128.187.116 1.25 1.009.755 1.765zM7.001 18.834a30.848 30.848 0 0 1-.561-1.636c-.593-.457-1.017-.532-1.779-.532-1.693 0-2.689 1.387-2.689 2.883s1.086 2.883 2.779 2.883c1.467 0 2.584-.884 2.924-2.136-.238-.488-.475-.936-.674-1.463zm2.278-10.7c-1.19 0-1.593 2.515-1.515 4.661.069 1.897.667 3.567.978 4.315.079.094.064.033.134.132 2.065-4.011 1.209-9.108.403-9.108zm24.771.079c-1.537-.156-1.528 5.52-1.337 6.793.798-1.132 2.186-6.489 1.337-6.793zm11.227 0c-1.537-.156-1.528 5.52-1.337 6.793.798-1.132 2.186-6.489 1.337-6.793zm11.138.079c-1.538-.156-1.528 5.52-1.337 6.794.798-1.132 2.186-6.489 1.337-6.794zm10.96-.411c-2.395.426-1.838 7.505-1.474 8.746 2.822-3.435 2.88-8.875 1.474-8.746zm8.977 8.846c-.121-.451-.731-.693-1.151-.633-1.203.146-2.369 1.473-1.918 3.494.101.45.352.865.348.851 2.692-1.601 2.921-2.862 2.721-3.712zm-50.723-3.379c-.344 0-.68-.09-.966-.259s-.509-.41-.64-.691-.166-.591-.099-.89c.067-.299.233-.573.476-.789s.553-.362.89-.422c.337-.059.687-.029 1.004.088s.589.314.78.567a1.39 1.39 0 0 1 .161 1.445 1.54 1.54 0 0 1-.377.5c-.161.143-.353.257-.564.334s-.437.117-.665.117z"/>
    </symbol>
    <symbol id="icon-amazon-logo" viewBox="0 0 83 32">
      <path d="M51.101 25.205C46.314 28.332 39.376 30 33.403 30c-8.376 0-15.916-2.746-21.621-7.312-.448-.359-.047-.848.491-.569 6.156 3.175 13.768 5.084 21.631 5.084 5.303 0 11.137-.972 16.501-2.99.81-.305 1.488.47.696.992z"/>
      <path d="M53.091 23.187c-.61-.693-4.044-.327-5.586-.165-.47.051-.541-.311-.118-.572 2.736-1.706 7.225-1.214 7.748-.642.523.575-.136 4.563-2.707 6.467-.394.292-.771.137-.595-.251.577-1.278 1.872-4.141 1.259-4.837zM47.612 10.402V8.743c0-.251.215-.419.473-.419h8.379c.269 0 .484.172.484.419v1.42c-.004.238-.229.55-.631 1.042l-4.342 5.494c1.613-.035 3.317.178 4.78.909.33.165.419.407.445.645v1.77c0 .241-.301.524-.617.378-2.578-1.198-6.002-1.328-8.853.013-.29.14-.595-.14-.595-.381v-1.681c0-.27.004-.731.308-1.141l5.03-6.394h-4.378c-.269 0-.484-.168-.484-.416zM17.046 20.753h-2.549c-.244-.016-.437-.178-.455-.385V8.772c0-.232.219-.416.491-.416h2.377c.247.01.445.178.463.388v1.516h.047c.62-1.465 1.786-2.148 3.356-2.148 1.596 0 2.592.683 3.309 2.148.617-1.465 2.019-2.148 3.521-2.148 1.068 0 2.237.391 2.951 1.268.807.976.642 2.393.642 3.635l-.004 7.319c0 .232-.219.419-.491.419h-2.546c-.255-.016-.459-.197-.459-.419v-6.146c0-.489.05-1.71-.072-2.174-.19-.779-.76-.998-1.499-.998-.617 0-1.262.365-1.524.95s-.237 1.563-.237 2.221v6.146c0 .232-.219.419-.491.419H21.33c-.258-.016-.459-.197-.459-.419l-.004-6.146c0-1.293.24-3.197-1.57-3.197-1.832 0-1.76 1.856-1.76 3.197v6.146c0 .232-.219.419-.491.419zM64.163 8.111c3.783 0 5.83 2.879 5.83 6.54 0 3.537-2.262 6.343-5.83 6.343-3.715 0-5.737-2.879-5.737-6.467 0-3.61 2.047-6.416 5.737-6.416zm.021 2.368c-1.879 0-1.997 2.269-1.997 3.683 0 1.417-.025 4.443 1.976 4.443 1.976 0 2.069-2.441 2.069-3.928 0-.979-.047-2.148-.38-3.076-.287-.807-.857-1.122-1.667-1.122zM74.898 20.753h-2.539c-.255-.016-.459-.197-.459-.419l-.004-11.599c.022-.213.233-.378.491-.378h2.363c.223.01.405.143.455.324v1.773h.047c.714-1.586 1.714-2.342 3.475-2.342 1.144 0 2.259.365 2.976 1.366.667.928.667 2.488.667 3.61v7.299c-.029.203-.24.365-.491.365h-2.556c-.233-.016-.427-.168-.452-.365v-6.298c0-1.268.165-3.124-1.595-3.124a1.67 1.67 0 0 0-1.474.928c-.359.709-.405 1.414-.405 2.196v6.244c-.004.232-.226.419-.499.419zM40.932 15.214v-.489c-1.847 0-3.793.35-3.793 2.275 0 .976.574 1.637 1.553 1.637.714 0 1.359-.391 1.764-1.026.502-.782.477-1.516.477-2.396zm2.571 5.507a.588.588 0 0 1-.602.054c-.846-.623-1-.912-1.463-1.506-1.398 1.265-2.392 1.643-4.202 1.643-2.148 0-3.815-1.173-3.815-3.521 0-1.834 1.119-3.083 2.718-3.693 1.384-.54 3.317-.636 4.794-.785v-.292c0-.537.047-1.173-.312-1.637-.308-.416-.904-.588-1.431-.588-.972 0-1.836.442-2.047 1.357-.043.203-.212.404-.445.413l-2.47-.235c-.208-.041-.441-.191-.38-.473.566-2.657 3.277-3.457 5.701-3.457 1.241 0 2.861.292 3.84 1.125 1.241 1.026 1.122 2.396 1.122 3.886v3.521c0 1.058.495 1.522.961 2.094.161.203.197.448-.011.601-.52.385-1.445 1.1-1.954 1.5l-.004-.006zM7.512 15.214v-.489c-1.843 0-3.79.35-3.79 2.275 0 .976.57 1.637 1.549 1.637.717 0 1.359-.391 1.764-1.026.502-.782.477-1.516.477-2.396zm2.57 5.507a.588.588 0 0 1-.602.054c-.846-.623-.997-.912-1.463-1.506-1.398 1.265-2.388 1.643-4.202 1.643C1.671 20.912 0 19.739 0 17.391c0-1.834 1.122-3.082 2.718-3.693 1.384-.54 3.317-.636 4.794-.785v-.292c0-.537.047-1.173-.308-1.637-.312-.416-.907-.588-1.431-.588-.972 0-1.839.442-2.051 1.357-.043.203-.212.404-.441.413l-2.474-.235c-.208-.041-.437-.191-.38-.473.57-2.657 3.277-3.457 5.701-3.457 1.241 0 2.861.292 3.84 1.125 1.241 1.026 1.122 2.396 1.122 3.886v3.521c0 1.058.495 1.522.961 2.094.165.203.201.448-.007.601-.52.385-1.445 1.1-1.954 1.5l-.007-.006z"/>
    </symbol>
    <symbol id="icon-Illustration" viewBox="0 0 37 32">
      <path d="m19.358 26.876 1.094-.322-.319 1.097.319 1.094-1.094-.319-1.097.319.322-1.094-.322-1.097 1.097.322zM7.797 21.469l1.956 1.066-1.956 1.074-1.07 1.951-1.07-1.951-1.956-1.074 1.956-1.066 1.07-1.96 1.07 1.96z" style="fill:var(--color1, #000)"/>
      <path fill="#b9ff66" d="M9.167 6.493a.963.963 0 1 1-1.926 0 .963.963 0 0 1 1.926 0zM26.814 27.029a.621.621 0 1 1-1.242 0 .621.621 0 0 1 1.242 0z" style="fill:var(--color2, #b9ff66)"/>
      <path d="M6.558 4.008a1.46 1.46 0 1 1-2.92 0 1.46 1.46 0 0 1 2.92 0zM19.045 23.835c-.392.134-.839-.131-.995-.591l-2.423-7.1 1.416-.484 2.426 7.109c.156.455-.034.932-.423 1.066z" style="fill:var(--color1, #000)"/>
      <path d="M18.834 23.922a.766.766 0 0 1-.343-.083 1.004 1.004 0 0 1-.494-.579l-2.423-7.1a.053.053 0 0 1 .034-.068l1.416-.484c.015-.005.029-.005.041.002s.022.017.027.032l2.426 7.11c.163.482-.041.991-.457 1.134a.709.709 0 0 1-.226.037zm-3.139-7.744 2.406 7.049a.887.887 0 0 0 .438.518.636.636 0 0 0 .489.039c.36-.124.535-.572.389-.998l-2.409-7.058-1.314.45z" style="fill:var(--color1, #000)"/>
      <path fill="#b9ff66" d="M16.792 9.531 12.211 12.8l-1.783 1.852-.701 1.239-.002.01c-.139.214-.058.708.202 1.212.255.497.616.842.869.862l-.007.005 1.345.146 2.518-.402 5.345-1.913 6.691 1.142c-1.669-.312-3.922-2.543-5.559-5.7-1.635-3.154-2.156-6.272-1.438-7.811h-.003l-2.895 6.09z" style="fill:var(--color2, #b9ff66)"/>
      <path fill="#fff" d="M27.791 16.814c1.642-.853 1.325-4.721-.709-8.639s-5.014-6.402-6.656-5.549c-1.642.853-1.325 4.721.709 8.639s5.014 6.402 6.656 5.549z" style="fill:var(--color3, #fff)"/>
      <path d="M27.069 17.037c-.715 0-1.577-.399-2.504-1.176-1.263-1.056-2.501-2.685-3.486-4.588-1.491-2.882-2.107-5.837-1.567-7.528.18-.565.482-.959.893-1.171.817-.419 1.968-.063 3.243 1.003 1.263 1.056 2.501 2.685 3.486 4.588 1.494 2.882 2.109 5.837 1.567 7.528-.18.565-.482.959-.893 1.171-.221.117-.47.173-.74.173zM21.15 2.511c-.251 0-.484.051-.693.161-.387.197-.669.572-.839 1.11-.533 1.667.08 4.59 1.559 7.448 2.014 3.887 4.968 6.374 6.586 5.544.387-.197.669-.572.839-1.11.533-1.667-.08-4.59-1.56-7.448-1.754-3.383-4.216-5.705-5.893-5.705z" style="fill:var(--color1, #000)"/>
      <path d="M27.069 17.037c-.715 0-1.577-.399-2.504-1.176-1.263-1.056-2.501-2.685-3.486-4.588-1.491-2.882-2.107-5.837-1.567-7.528.18-.565.482-.959.893-1.171.547-.282 1.263-.212 2.068.202.771.397 1.606 1.1 2.418 2.032.019.022.017.056-.005.075s-.056.017-.075-.005c-1.65-1.894-3.319-2.741-4.355-2.208-.387.197-.669.572-.839 1.11-.533 1.667.08 4.59 1.559 7.448 1.752 3.381 4.216 5.705 5.89 5.705.251 0 .484-.051.693-.161.387-.197.669-.572.839-1.11.533-1.667-.08-4.59-1.56-7.448a18.036 18.036 0 0 0-1.47-2.38c-.017-.024-.012-.058.012-.075s.058-.012.075.012a18.329 18.329 0 0 1 1.479 2.395c1.491 2.879 2.107 5.834 1.564 7.526-.18.565-.482.959-.893 1.171-.221.117-.47.173-.74.173z" style="fill:var(--color1, #000)"/>
      <path fill="#b9ff66" d="M24.065 11.827c.38-.198.307-1.093-.163-2s-1.161-1.482-1.541-1.284c-.38.198-.307 1.093.163 2s1.161 1.482 1.541 1.284z" style="fill:var(--color2, #b9ff66)"/>
      <path fill="#b9ff66" d="M23.899 11.921c-.419 0-1.002-.54-1.423-1.356-.35-.677-.494-1.373-.365-1.774a.482.482 0 0 1 .226-.295c.414-.212 1.122.365 1.613 1.312.35.677.494 1.373.365 1.774a.482.482 0 0 1-.226.295.421.421 0 0 1-.19.044zm-1.372-3.364c-.051 0-.1.01-.141.032-.08.041-.139.119-.175.234-.119.375.02 1.042.358 1.694.448.864 1.122 1.446 1.47 1.266.08-.041.139-.119.175-.234.119-.377-.022-1.042-.358-1.694-.394-.757-.959-1.297-1.328-1.297z" style="fill:var(--color2, #b9ff66)"/>
      <path d="M26.699 16.129c-.628 0-1.382-.35-2.195-1.03-1.105-.925-2.19-2.351-3.051-4.016-1.306-2.522-1.844-5.109-1.372-6.591.158-.497.423-.842.786-1.03.832-.426 2.056.066 3.36 1.348.022.022.022.054 0 .075s-.053.022-.075 0c-1.27-1.249-2.45-1.735-3.236-1.329-.336.173-.581.497-.732.966-.465 1.455.071 4.011 1.365 6.511 1.53 2.957 3.683 4.987 5.148 4.987.219 0 .421-.046.606-.139.336-.173.581-.497.732-.966.465-1.455-.071-4.011-1.365-6.511a15.883 15.883 0 0 0-1.302-2.103c-.017-.024-.012-.058.012-.075s.058-.012.075.012c.477.647.917 1.358 1.311 2.117 1.306 2.522 1.844 5.109 1.372 6.591-.158.497-.423.842-.786 1.03-.2.1-.419.151-.654.151z" style="fill:var(--color1, #000)"/>
      <path d="M12.136 18.176h-.005l-1.345-.146a.038.038 0 0 1-.022-.007c-.277-.044-.628-.394-.883-.886-.272-.518-.353-1.025-.204-1.263l.002-.007.701-1.241c.002-.005.005-.007.007-.01l1.783-1.852.007-.007 4.569-3.261 2.89-6.077c.007-.012.017-.022.032-.027s.029-.005.041.002c.027.012.039.044.027.071-.732 1.57-.153 4.69 1.438 7.762 1.594 3.076 3.815 5.355 5.525 5.669a.054.054 0 0 1 .044.058c-.002.027-.027.046-.053.049l-.046-.002h-.007l-6.632-1.137-5.333 1.908-.01.002-2.518.402c-.002.002-.005.002-.007.002zm-1.312-.248 1.311.141 2.506-.402 5.343-1.911c.01-.002.017-.005.027-.002l5.97 1.022c-1.613-.708-3.499-2.799-4.898-5.501-1.389-2.682-2.01-5.406-1.669-7.127L16.84 9.551c-.005.007-.01.015-.017.019l-4.576 3.269-1.776 1.842-.701 1.241a.012.012 0 0 1-.002.005c-.127.197-.041.684.204 1.159.241.465.589.815.827.832.01 0 .017.003.024.007z" style="fill:var(--color1, #000)"/>
      <path fill="#fff" d="m16.799 9.511 2.888-6.073h.002c-.718 1.538-.195 4.656 1.438 7.811 1.637 3.159 3.89 5.391 5.564 5.698l-.046-.002-6.788-1.163c-.771-.136-1.8-1.139-2.538-2.57-.757-1.468-.89-2.93-.555-3.627l.034-.073z" style="fill:var(--color3, #fff)"/>
      <path d="M26.692 17c-.002 0 0 0 0 0l-.049-.003h-.007l-6.788-1.163c-.815-.144-1.849-1.188-2.576-2.597-.825-1.601-.866-3.028-.555-3.675l.037-.073 2.888-6.07c.007-.012.017-.022.032-.027s.029-.005.041.002c.027.012.039.044.027.071-.732 1.57-.153 4.69 1.438 7.762 1.594 3.076 3.815 5.355 5.525 5.669a.054.054 0 0 1 .044.058c-.007.024-.029.046-.056.046zM19.41 4.149l-2.562 5.386-.037.073c-.309.643-.219 2.079.555 3.578.713 1.382 1.718 2.405 2.501 2.541l.153.027 5.958 1.022c-1.613-.708-3.499-2.799-4.898-5.501-1.389-2.682-2.01-5.406-1.671-7.127zM12.063 18.169h-.005l-1.275-.136a.038.038 0 0 1-.022-.007c-.277-.044-.628-.394-.883-.886-.27-.521-.35-1.027-.202-1.266l.002-.007.701-1.241c.015-.027.046-.034.073-.019s.034.046.02.073l-.701 1.246a.012.012 0 0 1-.002.005c-.127.197-.041.684.204 1.159.241.465.589.815.827.832.007 0 .017.003.022.007l1.246.134a.05.05 0 0 1 .046.058.052.052 0 0 1-.051.049z" style="fill:var(--color1, #000)"/>
      <path fill="#fff" d="M12.148 18.115c-.414-.029-.993-.616-1.414-1.426-.445-.859-.55-1.748-.277-2.064l-.727 1.266-.005.01c-.139.214-.058.708.202 1.212.255.497.616.842.869.862l-.007.005 1.36.136z" style="fill:var(--color3, #fff)"/>
      <path d="M12.148 18.169h-.005l-.032-.003-1.328-.134a.038.038 0 0 1-.022-.007c-.277-.044-.628-.394-.883-.886-.27-.521-.35-1.027-.202-1.266l.002-.007.64-1.115a.585.585 0 0 1 .095-.166c.017-.022.049-.024.071-.01a.055.055 0 0 1 .015.071l-.09.153c-.144.387-.002 1.146.367 1.857.401.776.949 1.344 1.341 1.395l.029.003a.054.054 0 0 1 .049.058c.002.034-.02.056-.046.056zm-1.326-.241.929.095c-.358-.229-.752-.701-1.066-1.309-.304-.587-.455-1.195-.431-1.633l-.484.845a.012.012 0 0 1-.002.005c-.127.197-.041.684.204 1.159.241.465.589.815.827.832.007 0 .017.002.022.007z" style="fill:var(--color1, #000)"/>
      <path d="m14.561 17.733.107-.022c-.579.122-1.494-.755-2.139-1.998-.659-1.271-.783-2.539-.316-2.913l-.061.061-1.691 1.757c-.277.312-.175 1.205.273 2.069.431.832 1.041 1.426 1.457 1.424l2.37-.377z" style="fill:var(--color1, #000)"/>
      <path d="M12.189 18.166c-.443 0-1.058-.596-1.504-1.453-.452-.876-.567-1.791-.265-2.13l1.659-1.723a.537.537 0 0 1 .1-.102.055.055 0 0 1 .073.005c.02.022.02.054 0 .073l-.095.1c-.338.453-.17 1.611.421 2.753.637 1.232 1.528 2.076 2.073 1.974l.007-.002a.054.054 0 0 1 .063.041.054.054 0 0 1-.041.063c-.002 0-.005 0-.007.002l-.1.02h-.002l-2.37.377-.012.002zm-.25-5.004-1.438 1.494c-.268.302-.146 1.183.282 2.008.418.808 1.01 1.392 1.406 1.395l2.092-.333c-.564-.2-1.26-.952-1.798-1.986-.511-.986-.708-1.989-.545-2.578zM22.361 8.542c-.382.195-.326 1.098.161 1.998.815 1.507 1.465 1.329 1.54 1.302.002 0 .002.002 0 .002l-1.399 1.127a16.02 16.02 0 0 1-1.163-1.913 15.888 15.888 0 0 1-.861-1.969l1.723-.548z" style="fill:var(--color1, #000)"/>
      <path d="M22.663 13.026h-.007a.057.057 0 0 1-.037-.022 16.056 16.056 0 0 1-1.165-1.918 15.926 15.926 0 0 1-.864-1.974c-.005-.015-.005-.029.002-.041s.017-.022.032-.027l1.723-.548c.027-.007.056.005.066.032s0 .056-.024.068c-.083.041-.144.124-.18.246-.119.382.027 1.059.365 1.679.796 1.47 1.409 1.302 1.474 1.278.024-.01.053.002.066.024s.007.054-.012.071l-1.404 1.12a.061.061 0 0 1-.034.012zm-1.954-3.902a16.155 16.155 0 0 0 1.965 3.77l1.214-.978c-.277-.012-.8-.219-1.414-1.351-.355-.655-.501-1.346-.372-1.762a.79.79 0 0 1 .061-.144l-1.455.465zM29.559 5.07c1.112-.584 1.542-1.956.961-3.064s-1.955-1.532-3.067-.948c-1.112.584-1.542 1.956-.961 3.064s1.955 1.532 3.067.948z" style="fill:var(--color1, #000)"/>
      <path fill="#fff" d="M27.471 2.562a.63.63 0 0 1 .445-.256.589.589 0 0 1 .382.088.743.743 0 0 1 .165.139.71.71 0 0 1 .131-.173.591.591 0 0 1 .353-.168.636.636 0 0 1 .491.153.741.741 0 0 1 .241.479c.022.197-.032.387-.168.596-.122.187-.307.382-.521.611-.073.078-.156.165-.241.258a.136.136 0 0 1-.088.044.135.135 0 0 1-.095-.024 21.434 21.434 0 0 0-.292-.2c-.258-.175-.482-.326-.642-.482-.18-.173-.273-.348-.294-.545a.759.759 0 0 1 .131-.521z" style="fill:var(--color3, #fff)"/>
      <path fill="#b9ff66" d="M35.869 5.194c.814-.815.814-2.135 0-2.95s-2.134-.815-2.949 0c-.814.815-.814 2.135 0 2.95s2.134.815 2.949 0z" style="fill:var(--color2, #b9ff66)"/>
      <path fill="#b9ff66" d="M34.395 5.858a2.142 2.142 0 0 1-2.139-2.139c0-1.178.959-2.139 2.139-2.139s2.139.959 2.139 2.139a2.142 2.142 0 0 1-2.139 2.139zm0-4.172c-1.119 0-2.032.91-2.032 2.032 0 1.12.91 2.032 2.032 2.032 1.119 0 2.031-.91 2.031-2.032 0-1.12-.91-2.032-2.031-2.032z" style="fill:var(--color2, #b9ff66)"/>
      <path d="M34.959 3.925a.36.36 0 0 0-.287.144l-.703-.275.002-.027a.294.294 0 0 0-.005-.051l.72-.333a.376.376 0 0 0 .272.127.366.366 0 1 0-.365-.368c0 .017.002.034.005.051l-.72.333a.376.376 0 0 0-.272-.127.366.366 0 0 0 0 .733.36.36 0 0 0 .287-.144l.703.275-.002.027c0 .202.163.368.365.368a.366.366 0 0 0 0-.733zM34.987 11.805c.955-.663 1.195-1.97.536-2.92s-1.967-1.182-2.922-.519c-.955.663-1.195 1.97-.536 2.92s1.967 1.182 2.922.519z" style="fill:var(--color1, #000)"/>
      <path fill="#fff" d="m33.268 11.083-.307-1.662a.117.117 0 0 1 .146-.134l1.813.514a.117.117 0 0 1 .039.204l-1.508 1.149c-.066.054-.165.017-.182-.071z" style="fill:var(--color3, #fff)"/>
      <path fill="#b9ff66" d="M33.773 18.615c1.179-.574 1.672-1.99 1.102-3.162s-1.989-1.657-3.168-1.083c-1.179.574-1.672 1.99-1.102 3.162s1.989 1.657 3.168 1.083z" style="fill:var(--color2, #b9ff66)"/>
      <path d="M32.728 18.911c-.253 0-.511-.039-.762-.124a2.386 2.386 0 0 1-1.396-1.212 2.394 2.394 0 0 1-.124-1.845 2.44 2.44 0 0 1 3.073-1.531 2.39 2.39 0 0 1 1.397 1.212c.287.577.331 1.232.124 1.845a2.449 2.449 0 0 1-2.311 1.655zm.024-4.727c-.971 0-1.881.613-2.209 1.582a2.285 2.285 0 0 0 .119 1.762c.275.552.749.964 1.336 1.159a2.333 2.333 0 0 0 2.937-1.463 2.285 2.285 0 0 0-.119-1.762 2.285 2.285 0 0 0-1.336-1.159 2.228 2.228 0 0 0-.727-.119z" style="fill:var(--color1, #000)"/>
      <path d="M33.95 16.109c-.024.591-1.024 1.974-1.263 2.298a.058.058 0 0 1-.097-.005c-.151-.243-.65-1.061-.91-1.723-.105-.263-.17-.501-.163-.669a1.218 1.218 0 0 1 1.265-1.168 1.224 1.224 0 0 1 1.168 1.268z" style="fill:var(--color1, #000)"/>
      <path fill="#b9ff66" d="M33.127 16.455a.556.556 0 1 0-.786-.788.556.556 0 0 0 .786.788z" style="fill:var(--color2, #b9ff66)"/>
    </symbol>
  </defs>
</svg>